<svg width="450" height="300" viewBox="0 0 450 300" fill="none" xmlns="http://www.w3.org/2000/svg">
<rect width="450" height="300" fill="#FCFCFC"/>
<path d="M85.75 231.125C79.8375 231.125 74.776 229.371 70.5656 225.862C66.3552 222.353 64.25 218.135 64.25 213.208V87.7917C64.25 82.8646 66.3552 78.6467 70.5656 75.138C74.776 71.6293 79.8375 69.875 85.75 69.875H236.25C242.163 69.875 247.224 71.6293 251.434 75.138C255.645 78.6467 257.75 82.8646 257.75 87.7917V213.208C257.75 218.135 255.645 222.353 251.434 225.862C247.224 229.371 242.163 231.125 236.25 231.125H85.75ZM85.75 213.208H236.25V87.7917H85.75V213.208ZM96.5 195.292H225.5L185.188 150.5L152.938 186.333L128.75 159.458L96.5 195.292Z" fill="#A7A7A7"/>
<rect x="308" y="33" width="84" height="50.5806" rx="4.65223" fill="#373737"/>
<path d="M322.112 66.4607C321.272 66.4607 320.613 65.8019 320.613 64.9728C320.613 64.1323 321.272 63.4849 322.112 63.4849C322.941 63.4849 323.6 64.1323 323.6 64.9728C323.6 65.8019 322.941 66.4607 322.112 66.4607ZM330.108 66.5629C327.076 66.5629 325.304 64.7115 325.168 62.0992L325.156 61.9629H327.666L327.678 62.0651C327.78 63.3145 328.564 64.2913 330.086 64.2913C331.767 64.2913 332.675 63.2918 332.675 61.4177V49.9007H335.219V61.4404C335.219 64.6661 333.323 66.5629 330.108 66.5629ZM338.275 66.2903V49.9007H344.374C347.588 49.9007 349.814 52.0587 349.814 55.273V55.2958C349.814 58.4987 347.588 60.6908 344.374 60.6908H340.819V66.2903H338.275ZM343.738 52.0474H340.819V58.5555H343.738C345.953 58.5555 347.225 57.3629 347.225 55.3071V55.2844C347.225 53.24 345.953 52.0474 343.738 52.0474ZM352.041 66.2903V49.9007H362.445V52.0928H354.585V56.8745H362.024V59.0098H354.585V64.0982H362.445V66.2903H352.041ZM372.11 66.5629C367.419 66.5629 364.466 63.2918 364.466 58.0217V58.0103C364.466 52.8424 367.419 49.6281 372.076 49.6281C375.915 49.6281 378.323 51.8429 379.004 54.796L379.05 55.0004H376.438L376.404 54.8755C375.711 52.9787 374.223 51.877 372.087 51.877C368.953 51.877 367.056 54.16 367.056 57.999V58.0103C367.056 61.9288 369.009 64.314 372.133 64.314C374.791 64.314 376.631 62.633 376.665 60.1456V59.873H372.36V57.7945H379.175V59.4755C379.175 63.9165 376.551 66.5629 372.11 66.5629Z" fill="white"/>
<rect x="308" y="94.4193" width="84" height="50.5806" rx="4.65223" fill="#373737"/>
<path d="M326.612 127.88C325.772 127.88 325.113 127.221 325.113 126.392C325.113 125.552 325.772 124.904 326.612 124.904C327.441 124.904 328.1 125.552 328.1 126.392C328.1 127.221 327.441 127.88 326.612 127.88ZM329.52 127.71L335.483 111.32H338.232L344.183 127.71H341.514L340.015 123.28H333.7L332.189 127.71H329.52ZM336.835 114.035L334.381 121.236H339.322L336.88 114.035H336.835ZM348.715 127.71L342.877 111.32H345.614L350.089 124.881H350.146L354.621 111.32H357.358L351.52 127.71H348.715ZM359.176 127.71V111.32H361.72V127.71H359.176ZM364.741 127.71V111.32H374.975V113.512H367.285V118.703H374.327V120.849H367.285V127.71H364.741Z" fill="white"/>
<rect x="308" y="155.839" width="84" height="50.5806" rx="4.65223" fill="#373737"/>
<path d="M326.612 189.3C325.772 189.3 325.113 188.641 325.113 187.812C325.113 186.971 325.772 186.324 326.612 186.324C327.441 186.324 328.1 186.971 328.1 187.812C328.1 188.641 327.441 189.3 326.612 189.3ZM330.735 189.129V172.74H336.835C340.049 172.74 342.275 174.898 342.275 178.112V178.135C342.275 181.338 340.049 183.53 336.835 183.53H333.279V189.129H330.735ZM336.198 174.886H333.279V181.394H336.198C338.413 181.394 339.685 180.202 339.685 178.146V178.123C339.685 176.079 338.413 174.886 336.198 174.886ZM344.501 189.129V172.74H346.852L355.28 184.859H355.348V172.74H357.87V189.129H355.53L347.091 176.987H347.023V189.129H344.501ZM367.955 189.402C363.265 189.402 360.311 186.131 360.311 180.861V180.849C360.311 175.681 363.265 172.467 367.921 172.467C371.76 172.467 374.168 174.682 374.85 177.635L374.895 177.839H372.283L372.249 177.714C371.556 175.818 370.068 174.716 367.933 174.716C364.798 174.716 362.901 176.999 362.901 180.838V180.849C362.901 184.768 364.855 187.153 367.978 187.153C370.636 187.153 372.476 185.472 372.51 182.984V182.712H368.205V180.633H375.02V182.314C375.02 186.755 372.396 189.402 367.955 189.402Z" fill="white"/>
<rect x="308" y="217.258" width="84" height="50.5806" rx="4.65223" fill="#373737"/>
<path d="M319.112 250.719C318.272 250.719 317.613 250.06 317.613 249.231C317.613 248.39 318.272 247.743 319.112 247.743C319.941 247.743 320.6 248.39 320.6 249.231C320.6 250.06 319.941 250.719 319.112 250.719ZM325.143 250.548L320.725 234.159H323.372L326.427 247.005H326.472L329.936 234.159H332.344L335.809 247.005H335.865L338.921 234.159H341.567L337.137 250.548H334.695L331.175 238.191H331.118L327.585 250.548H325.143ZM343.589 250.548V234.159H353.993V236.351H346.133V241.133H353.572V243.268H346.133V248.356H353.993V250.548H343.589ZM356.605 250.548V234.159H363.147C366.055 234.159 367.963 235.783 367.963 238.259V238.282C367.963 240.008 366.657 241.61 364.93 241.859V241.905C367.259 242.143 368.769 243.745 368.769 245.903V245.926C368.769 248.799 366.668 250.548 363.181 250.548H356.605ZM362.534 236.237H359.149V241.144H361.966C364.215 241.144 365.43 240.235 365.43 238.588V238.566C365.43 237.066 364.374 236.237 362.534 236.237ZM362.488 243.109H359.149V248.47H362.659C364.942 248.47 366.168 247.55 366.168 245.801V245.778C366.168 244.017 364.919 243.109 362.488 243.109ZM370.962 250.548V234.159H377.061C380.275 234.159 382.501 236.317 382.501 239.531V239.554C382.501 242.757 380.275 244.949 377.061 244.949H373.506V250.548H370.962ZM376.425 236.305H373.506V242.814H376.425C378.64 242.814 379.912 241.621 379.912 239.565V239.542C379.912 237.498 378.64 236.305 376.425 236.305Z" fill="white"/>
</svg>
